<svg xmlns="http://www.w3.org/2000/svg" aria-hidden="true" style="position:absolute;width:0;height:0;overflow:hidden">
  <defs>
    <symbol id="website-icon" viewBox="0 0 20 20">
      <path d="M10 20C4.477 20 0 15.523 0 10S4.477 0 10 0s10 4.477 10 10-4.477 10-10 10zm7.75-8a8.053 8.053 0 0 0-.012-4.056l.013.056h-3.82a29 29 0 0 1-.005 4.093l.005-.093h3.82zm-.82 2h-3.22a14.455 14.455 0 0 1-.985 3.605l.035-.095a8.087 8.087 0 0 0 4.15-3.472l.02-.038zm-8.85-2h3.84a24.91 24.91 0 0 0-.007-4.09l.006.09h-3.84a24.91 24.91 0 0 0 .007 4.09L8.08 12zm.25 2c.41 2.4 1.13 4 1.67 4s1.26-1.6 1.67-4H8.33zm-6.08-2h3.82a29 29 0 0 1 .005-4.093L6.07 8H2.25a8.053 8.053 0 0 0 .012 4.056L2.249 12zm.82 2a8.08 8.08 0 0 0 4.115 3.492l.055.018c-.42-.96-.74-2.16-.95-3.51H3.07zm13.86-8a8.08 8.08 0 0 0-4.115-3.492l-.055-.018c.42.96.74 2.16.95 3.51h3.22zm-8.6 0h3.34c-.41-2.4-1.13-4-1.67-4S8.74 3.6 8.33 6zM3.07 6h3.22c.2-1.35.53-2.55.95-3.51a8.087 8.087 0 0 0-4.15 3.472L3.07 6z"/>
    </symbol>
    <symbol id="phone-icon" viewBox="0 0 20 20">
      <path d="M20 18.35V19a1 1 0 0 1-1 1h-2C7.611 20 0 12.389 0 3V1a1 1 0 0 1 1-1h4a1 1 0 0 1 1 1v4c0 .56-.31 1.31-.7 1.7L3.16 8.84c1.52 3.6 4.4 6.48 8 8l2.12-2.12c.4-.4 1.15-.71 1.7-.71H19a1 1 0 0 1 .99 1v3.35z"/>
    </symbol>
    <symbol id="location-icon" viewBox="0 0 20 20">
      <path d="M10 20S3 10.87 3 7a7 7 0 1 1 14 0c0 3.87-7 13-7 13zm0-11a2 2 0 1 0 0-4 2 2 0 1 0 0 4z"/>
    </symbol>
    <symbol id="email-icon" viewBox="0 0 20 20">
      <path d="M18 2a2 2 0 0 1 2 2v12a2 2 0 0 1-2 2H2a2 2 0 0 1-2-2V4c0-1.1.9-2 2-2h16zm-4.37 9.1L20 16v-2l-5.12-3.9L20 6V4l-10 8L0 4v2l5.12 4.1L0 14v2l6.37-4.9L10 14l3.63-2.9z"/>
    </symbol>
    <symbol id="logo-icon" viewBox="0 0 32 32">
      <path d="M19.552 1.114c-.685.307-.794 1.184-.205 1.658.326.269 1.882 1.344 3.014 2.093l.826.544-1.306.038c-1.357.045-2.022.134-3.066.416-3.194.864-5.734 3.046-7.296 6.266-.378.781-.685 1.568-.864 2.214-.09.333-.128.378-.531.653-2.099 1.446-4.115 4.352-4.973 7.174-.595 1.984-.909 4.531-.851 6.989.026 1.056.045 1.254.154 1.472.141.275.563.538.877.538.282 0 .614-.186.787-.442.154-.23.154-.243.147-1.958 0-4.166.646-6.739 2.349-9.325.557-.838 1.549-2.035 1.69-2.035.026 0 .077.211.115.461.083.557.339 1.344.608 1.875 1.005 2.01 2.944 3.194 4.781 2.925 1.581-.23 2.925-1.338 3.43-2.829.192-.563.166-1.728-.058-2.4-.538-1.626-1.926-2.95-3.654-3.482-.634-.192-1.51-.288-2.106-.218-.371.045-.493.038-.493-.019 0-.166.864-1.766 1.267-2.33.237-.333.73-.909 1.101-1.28 2.003-2.016 4.723-2.938 7.93-2.694 1.414.109 1.338.07.973.544-.448.57-.787 1.139-1.421 2.426-.614 1.235-.666 1.44-.448 1.837.314.602 1.12.691 1.581.179.077-.077.371-.621.659-1.203.71-1.414 1.171-2.093 2.234-3.238.493-.531.941-1.056.998-1.165.198-.378.102-.838-.23-1.139-.077-.077-.621-.39-1.203-.698-1.504-.8-2.573-1.478-5.338-3.386-.794-.544-1.094-.64-1.478-.461zm-4.864 14.662c1.05.218 1.984.934 2.445 1.869.224.454.243.531.243 1.037 0 .474-.026.595-.173.877a2.221 2.221 0 0 1-1.824 1.165c-.582.032-.979-.096-1.491-.474-.986-.723-1.6-2.106-1.6-3.584v-.646l.467-.134c.762-.224 1.254-.25 1.933-.109z"/>
    </symbol>
  </defs>
</svg>
